<?xml version="1.0" encoding="UTF-8"?>
<svg version="1.1" xmlns="http://www.w3.org/2000/svg" width="800" height="800">
<path d="M0 0 C28.20338823 -0.63086526 49.34195798 12.54201057 72.76953125 26.3125 C79.5745363 30.30563928 86.42494067 34.2171119 93.28125 38.12109375 C103.00296102 43.66012511 112.69020972 49.25484953 122.34814453 54.90454102 C132.87209625 61.05876117 143.43505137 67.14479371 153.99902344 73.22998047 C159.42784942 76.35789523 164.85444281 79.48967823 170.28125 82.62109375 C172.44790583 83.87111254 174.6145725 85.12111253 176.78125 86.37109375 C198.44791667 98.87109375 220.11458333 111.37109375 241.78125 123.87109375 C243.3914502 124.79994385 243.3914502 124.79994385 245.03417969 125.74755859 C247.19134115 126.99222454 249.34824412 128.23733861 251.50488281 129.48291016 C257.06488598 132.69332021 262.62974833 135.89489736 268.203125 139.08203125 C296.32402605 155.17962098 322.69154472 171.00564088 332.20581055 204.1940918 C334.80966858 213.97622005 335.42944264 223.22293482 335.42169189 233.28869629 C335.42614858 235.10736371 335.42614858 235.10736371 335.4306953 236.96277189 C335.43784518 240.31149204 335.44055224 243.66016085 335.44129276 247.00888491 C335.44315156 250.62735849 335.45070305 254.24582113 335.45742798 257.86428833 C335.47097902 265.76959394 335.47703113 273.67489445 335.48143864 281.58020973 C335.48420683 286.52258536 335.48844526 291.46495906 335.49294281 296.40733337 C335.50513183 310.10897956 335.5154315 323.8106242 335.5188179 337.5122757 C335.51903747 338.38831789 335.51925703 339.26436008 335.51948325 340.166949 C335.51970153 341.04501135 335.51991981 341.92307371 335.5201447 342.82774401 C335.52058816 344.60684236 335.52103472 346.38594071 335.52148438 348.16503906 C335.5217058 349.04752129 335.52192723 349.93000351 335.52215537 350.83922762 C335.52609994 365.12542358 335.54354517 379.41156843 335.5668439 393.69774467 C335.59060729 408.38823843 335.60302204 423.0787066 335.60418582 437.76921988 C335.60509984 446.0080249 335.61078298 454.24676334 335.62900543 462.48554993 C335.64447398 469.50364943 335.64948736 476.52166175 335.64126733 483.53977507 C335.63738442 487.11444892 335.63817348 490.68894758 335.65232468 494.2635994 C335.76877886 525.52249305 331.29602327 551.29067141 308.7890625 574.71484375 C302.3727083 580.88368281 295.3869604 585.40983399 287.69335938 589.75439453 C284.93646533 591.31644847 282.19449899 592.90305554 279.453125 594.4921875 C273.87775915 597.72205757 268.29423147 600.93751767 262.70849609 604.14941406 C257.22969203 607.30134607 251.75563887 610.46150172 246.28125 613.62109375 C244.11460774 614.87113605 241.94794103 616.12113599 239.78125 617.37109375 C238.1725 618.29921875 238.1725 618.29921875 236.53125 619.24609375 C174.78125001 654.87109375 174.78125001 654.87109375 171.53076172 656.74633789 C169.36567929 657.99544893 167.20064018 659.24463504 165.03564453 660.49389648 C159.59509294 663.63311684 154.15377784 666.77099938 148.7109375 669.90625 C138.25918801 675.92856704 127.81825452 681.96778712 117.40625 688.05859375 C108.13941546 693.47845546 98.830812 698.8223739 89.50186157 704.13427734 C82.18768817 708.29935391 74.89831158 712.50288898 67.6418457 716.76806641 C39.34164363 733.39231006 13.33704402 745.82936851 -20.34375 737.19140625 C-36.85199019 732.1200189 -51.41538047 722.62406948 -66.20703125 713.9296875 C-73.0120363 709.93654822 -79.86244067 706.0250756 -86.71875 702.12109375 C-96.44046102 696.58206239 -106.12770972 690.98733797 -115.78564453 685.33764648 C-126.30959625 679.18342633 -136.87255137 673.09739379 -147.43652344 667.01220703 C-152.86534942 663.88429227 -158.29194281 660.75250927 -163.71875 657.62109375 C-165.88540583 656.37107496 -168.0520725 655.12107497 -170.21875 653.87109375 C-191.88541667 641.37109375 -213.55208333 628.87109375 -235.21875 616.37109375 C-236.8289502 615.44224365 -236.8289502 615.44224365 -238.47167969 614.49462891 C-240.62884115 613.24996296 -242.78574412 612.00484889 -244.94238281 610.75927734 C-250.50238598 607.54886729 -256.06724833 604.34729014 -261.640625 601.16015625 C-289.76152605 585.06256652 -316.12904472 569.23654662 -325.64331055 536.0480957 C-328.24655023 526.26829044 -328.86694549 517.02358012 -328.85919189 506.96022034 C-328.86216302 505.74848095 -328.86513414 504.53674157 -328.8681953 503.28828281 C-328.87534518 499.94149327 -328.87805224 496.59475509 -328.87879276 493.24796164 C-328.88065158 489.63151394 -328.88820312 486.01507718 -328.89492798 482.39863586 C-328.90847941 474.49739522 -328.9145313 466.59615967 -328.91893864 458.69490933 C-328.92170699 453.75453602 -328.92594546 448.81416465 -328.93044281 443.87379265 C-328.9426323 430.17643768 -328.9529316 416.47908425 -328.9563179 402.78172398 C-328.95653747 401.90593335 -328.95675703 401.03014272 -328.95698325 400.12781298 C-328.95731067 398.81110264 -328.95731067 398.81110264 -328.9576447 397.46779209 C-328.95808816 395.68922142 -328.95853472 393.91065075 -328.95898438 392.13208008 C-328.9592058 391.24986017 -328.95942723 390.36764025 -328.95965537 389.4586864 C-328.96359917 375.17963251 -328.98104183 360.90062978 -329.0043439 346.62159563 C-329.02811332 331.9367471 -329.04052232 317.25192418 -329.04168582 302.56705612 C-329.04259955 294.33213159 -329.04827515 286.0972737 -329.06650543 277.86236763 C-329.08198222 270.84685856 -329.08698262 263.83143672 -329.07876733 256.8159138 C-329.07488717 253.24314128 -329.07565958 249.67054401 -329.08982468 246.09779358 C-329.20149235 216.14425761 -325.71633202 190.04966298 -304.20898438 167.578125 C-296.48655837 159.95866468 -287.98167146 154.18126211 -278.53125 148.93359375 C-276.80961281 147.959212 -275.08798619 146.98481067 -273.36715698 146.00900269 C-271.61820362 145.01841298 -269.86701396 144.03185918 -268.11572266 143.04541016 C-262.95367117 140.12121224 -257.83648441 137.12195292 -252.71875 134.12109375 C-241.17260951 127.37212578 -229.58971408 120.68769156 -218.00097656 114.01220703 C-212.57215058 110.88429227 -207.14555719 107.75250927 -201.71875 104.62109375 C-199.55209417 103.37107496 -197.3854275 102.12107497 -195.21875 100.87109375 C-194.14625 100.25234375 -193.07375 99.63359375 -191.96875 98.99609375 C-148.09375 73.68359375 -148.09375 73.68359375 -104.21875 48.37109375 C-103.14584717 47.75210205 -102.07294434 47.13311035 -100.9675293 46.49536133 C-98.80496417 45.24774635 -96.64236661 44.00018759 -94.47973633 42.75268555 C-89.00004629 39.59165926 -83.52095642 36.42960066 -78.04296875 33.265625 C-72.63007355 30.13933791 -67.21437097 27.01795179 -61.79785156 23.89794922 C-58.79709982 22.16630704 -55.8005992 20.427499 -52.8046875 18.6875 C-50.96364377 17.62352122 -49.12250318 16.55971003 -47.28125 15.49609375 C-46.47196045 15.02341064 -45.6626709 14.55072754 -44.82885742 14.0637207 C-30.75325658 5.95905654 -16.32679601 0.72719925 0 0 Z M-38.71875 45.12109375 C-40.5928631 46.21246193 -42.46788298 47.30227427 -44.34375 48.390625 C-48.33880262 50.71212888 -52.32721542 53.04458513 -56.3125 55.3828125 C-63.08527419 59.34723531 -69.89966982 63.23718591 -76.71875 67.12109375 C-86.44027594 72.6604541 -96.1277053 78.25484694 -105.78564453 83.90454102 C-116.30959625 90.05876117 -126.87255137 96.14479371 -137.43652344 102.22998047 C-142.86534942 105.35789523 -148.29194281 108.48967823 -153.71875 111.62109375 C-155.88540583 112.87111254 -158.0520725 114.12111253 -160.21875 115.37109375 C-161.29125 115.98984375 -162.36375 116.60859375 -163.46875 117.24609375 C-225.21875 152.87109375 -225.21875 152.87109375 -228.47290039 154.74804688 C-230.62624273 155.99065255 -232.77908016 157.23413364 -234.93139648 158.47851562 C-239.95473695 161.38141472 -244.98229182 164.27592844 -250.02896118 167.13806152 C-251.8037747 168.145176 -253.57692301 169.15516244 -255.34960938 170.16601562 C-257.56511579 171.42823641 -259.78366336 172.685141 -262.00585938 173.93554688 C-278.58547784 183.40508008 -291.19794534 194.7018022 -296.9921875 213.39453125 C-298.16125833 217.78168952 -298.84385675 221.80884855 -298.85017776 226.35678959 C-298.85401891 227.39739633 -298.85786005 228.43800306 -298.8618176 229.51014334 C-298.86095112 230.64689629 -298.86008463 231.78364924 -298.85919189 232.95484924 C-298.86216302 234.16755318 -298.86513414 235.38025712 -298.8681953 236.62970966 C-298.87536833 239.99293022 -298.87805405 243.3560997 -298.87879276 246.71932423 C-298.88064592 250.3479991 -298.88819466 253.97666294 -298.89492798 257.60533142 C-298.90850233 265.5394708 -298.91453488 273.47360512 -298.91893864 281.40775418 C-298.92170308 286.36465579 -298.92594086 291.32155545 -298.93044281 296.27845573 C-298.94263526 310.01001265 -298.952934 323.74156801 -298.9563179 337.47313023 C-298.95653747 338.35178403 -298.95675703 339.23043783 -298.95698325 340.13571751 C-298.95720153 341.016446 -298.95741981 341.89717448 -298.9576447 342.80459172 C-298.95808816 344.58921023 -298.95853473 346.37382875 -298.95898438 348.15844727 C-298.9592058 349.04367523 -298.95942723 349.9289032 -298.95965537 350.84095626 C-298.96360088 365.17531081 -298.98104746 379.50961444 -299.0043439 393.84394933 C-299.02808395 408.57048919 -299.04052099 423.29700354 -299.04168582 438.02356285 C-299.04260119 446.2879949 -299.04831853 454.55236063 -299.06650543 462.81677437 C-299.0819424 469.8562876 -299.08700581 476.89571404 -299.07876733 483.93524099 C-299.07487325 487.52357495 -299.07572913 491.11173431 -299.08982468 494.70004654 C-299.10500191 498.59958959 -299.09666013 502.49888991 -299.08624268 506.39845276 C-299.09429908 507.51959065 -299.10235548 508.64072855 -299.11065602 509.79584032 C-299.00558581 526.6785979 -293.18407987 539.9655763 -281.890625 552.234375 C-274.58963255 559.26414584 -265.47013387 564.15770204 -256.71875 569.12109375 C-254.99559761 570.10673691 -253.27244952 571.09238767 -251.54956055 572.07849121 C-249.7760418 573.09282248 -248.00138779 574.10514441 -246.2265625 575.1171875 C-240.71193384 578.26427128 -235.21651673 581.44468053 -229.71875 584.62109375 C-227.55217015 585.87124422 -225.38550327 587.12124387 -223.21875 588.37109375 C-201.55208333 600.87109375 -179.88541667 613.37109375 -158.21875 625.87109375 C-157.14608887 626.48992432 -156.07342773 627.10875488 -154.96826172 627.74633789 C-152.80317929 628.99544893 -150.63814018 630.24463504 -148.47314453 631.49389648 C-143.03259294 634.63311684 -137.59127784 637.77099938 -132.1484375 640.90625 C-121.69668801 646.92856704 -111.25575452 652.96778712 -100.84375 659.05859375 C-91.57650193 664.47869732 -82.26673324 669.82143439 -72.93835449 675.13528442 C-65.64599599 679.29004338 -58.37265248 683.47472181 -51.13085938 687.71728516 C-47.22753188 690.00343019 -43.3161101 692.27556073 -39.40527344 694.54882812 C-36.85620467 696.04064954 -34.32211336 697.55541584 -31.7890625 699.07421875 C-15.65201846 708.60450327 0.10218184 713.01040511 18.81445312 708.29638672 C28.37798057 705.5126055 36.76744938 700.1562851 45.28125 695.12109375 C47.1553631 694.02972557 49.03038298 692.93991323 50.90625 691.8515625 C54.90130262 689.53005862 58.88971542 687.19760237 62.875 684.859375 C69.64777419 680.89495219 76.46216982 677.00500159 83.28125 673.12109375 C93.00277594 667.5817334 102.6902053 661.98734056 112.34814453 656.33764648 C122.87209625 650.18342633 133.43505137 644.09739379 143.99902344 638.01220703 C149.42784942 634.88429227 154.85444281 631.75250927 160.28125 628.62109375 C162.44790583 627.37107496 164.6145725 626.12107497 166.78125 624.87109375 C168.39 623.94296875 168.39 623.94296875 170.03125 622.99609375 C231.78125 587.37109375 231.78125 587.37109375 235.03540039 585.49414062 C237.18874273 584.25153495 239.34158016 583.00805386 241.49389648 581.76367188 C246.51723695 578.86077278 251.54479182 575.96625906 256.59146118 573.10412598 C258.3662747 572.0970115 260.13942301 571.08702506 261.91210938 570.07617188 C264.12761579 568.81395109 266.34616336 567.5570465 268.56835938 566.30664062 C285.14797784 556.83710742 297.76044534 545.5403853 303.5546875 526.84765625 C304.72375833 522.46049798 305.40635675 518.43333895 305.41267776 513.88539791 C305.41651891 512.84479117 305.42036005 511.80418444 305.4243176 510.73204416 C305.42301787 509.02691474 305.42301787 509.02691474 305.42169189 507.28733826 C305.42466302 506.07463432 305.42763414 504.86193038 305.4306953 503.61247784 C305.43786833 500.24925728 305.44055405 496.8860878 305.44129276 493.52286327 C305.44314592 489.8941884 305.45069466 486.26552456 305.45742798 482.63685608 C305.47100233 474.7027167 305.47703488 466.76858238 305.48143864 458.83443332 C305.48420308 453.87753171 305.48844086 448.92063205 305.49294281 443.96373177 C305.50513526 430.23217485 305.515434 416.50061949 305.5188179 402.76905727 C305.51914725 401.45107657 305.51914725 401.45107657 305.51948325 400.10646999 C305.51970153 399.2257415 305.51991981 398.34501302 305.5201447 397.43759578 C305.52058816 395.65297727 305.52103473 393.86835875 305.52148438 392.08374023 C305.52181652 390.75589828 305.52181652 390.75589828 305.52215537 389.40123124 C305.52610088 375.06687669 305.54354746 360.73257306 305.5668439 346.39823817 C305.59058395 331.67169831 305.60302099 316.94518396 305.60418582 302.21862465 C305.60510119 293.9541926 305.61081853 285.68982687 305.62900543 277.42541313 C305.6444424 270.3858999 305.64950581 263.34647346 305.64126733 256.30694651 C305.63737325 252.71861255 305.63822913 249.13045319 305.65232468 245.54214096 C305.66750191 241.64259791 305.65916013 237.74329759 305.64874268 233.84373474 C305.65679908 232.72259685 305.66485548 231.60145895 305.67315602 230.44634718 C305.56808581 213.5635896 299.74657987 200.2766112 288.453125 188.0078125 C281.15213255 180.97804166 272.03263387 176.08448546 263.28125 171.12109375 C261.55809761 170.13545059 259.83494952 169.14979983 258.11206055 168.16369629 C256.3385418 167.14936502 254.56388779 166.13704309 252.7890625 165.125 C247.27443384 161.97791622 241.77901673 158.79750697 236.28125 155.62109375 C234.11467015 154.37094328 231.94800327 153.12094363 229.78125 151.87109375 C208.11458333 139.37109375 186.44791667 126.87109375 164.78125 114.37109375 C163.70858887 113.75226318 162.63592773 113.13343262 161.53076172 112.49584961 C159.36567929 111.24673857 157.20064018 109.99755246 155.03564453 108.74829102 C149.59509294 105.60907066 144.15377784 102.47118812 138.7109375 99.3359375 C128.25918801 93.31362046 117.81825452 87.27440038 107.40625 81.18359375 C98.13900193 75.76349018 88.82923324 70.42075311 79.50085449 65.10690308 C72.20849599 60.95214412 64.93515248 56.76746569 57.69335938 52.52490234 C53.79003188 50.23875731 49.8786101 47.96662677 45.96777344 45.69335938 C43.41870467 44.20153796 40.88461336 42.68677166 38.3515625 41.16796875 C10.80692939 24.90054146 -12.15283429 29.4096066 -38.71875 45.12109375 Z " fill="#939598" transform="translate(396.71875,29.87890625)"/>
<path d="M0 0 C5.32673446 3.00368637 9.7427287 7.11521772 14.25439453 11.19726562 C16.52275635 13.2189582 18.88308114 15.11878033 21.25 17.0234375 C26.11379025 20.98101938 30.87131231 25.05136196 35.62084961 29.14428711 C39.14548919 32.17539039 42.70289882 35.15579066 46.3125 38.0859375 C51.71612902 42.47539568 56.99288455 47.00276559 62.26953125 51.54296875 C67.21808716 55.79945675 72.2072854 60.00760756 77.19482422 64.21826172 C78.84158979 65.61053167 80.48560067 67.00599223 82.12890625 68.40234375 C87.13484652 72.65333809 92.1529038 76.88158042 97.25 81.0234375 C102.05653978 84.9370352 106.76975197 88.94948858 111.46704102 92.99267578 C114.97030685 96.00808439 118.48489041 99.00889101 122.01782227 101.98950195 C123.64827288 103.36533621 125.27557008 104.74482157 126.90234375 106.125 C128.65705066 107.60884611 130.41818455 109.08520457 132.19140625 110.546875 C141.61872706 118.4536602 145.85974269 126.14722988 147.25 138.4609375 C146.58984844 150.85147456 141.14752624 158.96478243 132.20703125 167.03515625 C125.52826828 172.98032512 118.58746948 178.61330833 111.6484375 184.25 C107.16269934 187.94486421 102.76895166 191.74554572 98.36328125 195.53515625 C91.12433876 201.76116117 83.85384091 207.9467999 76.4375 213.9609375 C71.31516476 218.12750173 66.33832622 222.44795031 61.36206055 226.78637695 C56.85310043 230.7084329 52.26551936 234.51625615 47.62109375 238.27734375 C44.3095152 240.99937841 41.05936941 243.78733481 37.8125 246.5859375 C32.82631374 250.88298154 27.782853 255.09219163 22.66015625 259.2265625 C20.52443639 260.99607525 18.44070453 262.78884242 16.37109375 264.6328125 C5.67390235 274.12646124 -3.09648036 280.01147689 -17.80078125 279.86328125 C-25.99357095 279.19236076 -33.32379294 275.28606475 -39.1875 269.5859375 C-46.74595162 260.23025405 -48.18680405 251.47888943 -47.1875 239.5859375 C-46.29749699 235.94895222 -44.9988554 232.85477423 -43.1875 229.5859375 C-42.86007813 228.97621094 -42.53265625 228.36648438 -42.1953125 227.73828125 C-38.82692128 222.34147926 -33.72354186 218.76809771 -28.79248047 214.87646484 C-25.90743193 212.55666463 -23.11438884 210.12994028 -20.3125 207.7109375 C-19.11869941 206.68334993 -17.92468845 205.65600672 -16.73046875 204.62890625 C-16.14056152 204.12149902 -15.5506543 203.6140918 -14.94287109 203.09130859 C-10.58477286 199.35389083 -6.19204473 195.65716099 -1.80517578 191.95361328 C-0.15841021 190.56134333 1.48560067 189.16588277 3.12890625 187.76953125 C8.13484652 183.51853691 13.1529038 179.29029458 18.25 175.1484375 C23.66677399 170.73797276 28.96235207 166.19499599 34.2578125 161.640625 C42.98630687 154.1338335 51.767539 146.7116517 60.8125 139.5859375 C59.57911202 135.88577355 58.17429556 135.03890716 55.125 132.6484375 C50.65534802 129.08081101 46.2678149 125.446376 41.9375 121.7109375 C40.74623581 120.68603277 39.55482896 119.66129385 38.36328125 118.63671875 C37.77369629 118.12963379 37.18411133 117.62254883 36.57666016 117.10009766 C29.90517077 111.3740283 23.19741685 105.69414476 16.375 100.1484375 C10.95393044 95.7344752 5.65408026 91.18810945 0.35546875 86.62890625 C-4.59152889 82.37375859 -9.57934648 78.16719674 -14.56542969 73.95800781 C-16.22605034 72.55332869 -17.88297967 71.14440025 -19.5390625 69.734375 C-20.65098999 68.78900171 -21.76296868 67.84368865 -22.875 66.8984375 C-23.41326416 66.43977295 -23.95152832 65.9811084 -24.50610352 65.50854492 C-27.83172094 62.68854724 -31.23004548 59.99433586 -34.6875 57.3359375 C-41.37368888 51.99348836 -45.59359985 46.1071729 -47.1875 37.5859375 C-48.2065634 26.26439163 -47.19219542 17.27204479 -40 8.2734375 C-29.69949455 -2.66808653 -13.82695178 -5.66744245 0 0 Z " fill="#939598" transform="translate(241.1875,261.4140625)"/>
<path d="M0 0 C1.69612349 -0.00435285 3.39224501 -0.00953791 5.08836365 -0.01548767 C9.67528933 -0.02882833 14.26213236 -0.02946177 18.84907365 -0.02692437 C22.68823296 -0.02585114 26.52737579 -0.03074709 30.36653155 -0.03552979 C39.4299139 -0.04660828 48.49325479 -0.04707196 57.55664062 -0.04101562 C66.88325187 -0.03497886 76.20971213 -0.04728312 85.53629762 -0.06858569 C93.56463541 -0.08624364 101.59292533 -0.09219639 109.6212818 -0.08894795 C114.40699 -0.08714137 119.19259053 -0.08970837 123.97828102 -0.10366249 C128.48211378 -0.11630438 132.98571254 -0.11423702 137.48954201 -0.1012516 C139.1341561 -0.09889993 140.778787 -0.10156944 142.42338181 -0.10987473 C155.17896093 -0.16960174 167.45831748 0.03910056 177.19604492 9.2746582 C177.7503418 9.78899414 178.30463867 10.30333008 178.87573242 10.83325195 C185.03036859 17.21753873 187.38737808 25.10188669 187.69604492 33.8371582 C187.35994642 43.29272933 183.79737009 51.46886721 177.19604492 58.2746582 C169.9581362 64.21819638 162.90550703 66.58480871 153.51213074 66.54208374 C152.39893297 66.54888041 152.39893297 66.54888041 151.26324636 66.55581439 C148.79310884 66.56840685 146.32319327 66.56684138 143.85302734 66.56518555 C142.0751365 66.57117402 140.29724826 66.5779803 138.5193634 66.58554077 C133.70106436 66.6031754 128.8828364 66.60789508 124.0645082 66.60917234 C121.05105272 66.61059592 118.03761521 66.61486943 115.0241642 66.62016678 C104.5022632 66.63865856 93.98041281 66.64683844 83.45849609 66.64526367 C73.66492702 66.64406246 63.8715784 66.66516305 54.0780651 66.696751 C45.65744468 66.7229388 37.23689617 66.73362992 28.81623536 66.73235285 C23.79242687 66.73184396 18.76881439 66.73748677 13.74504662 66.75870895 C9.01795189 66.77813358 4.29123932 66.77818698 -0.43586922 66.76367569 C-2.16517955 66.76159174 -3.89451408 66.76626369 -5.62378311 66.77839661 C-18.4417134 66.86246514 -28.17638058 65.6321845 -37.82348633 56.49731445 C-45.65042732 47.71323275 -46.51560533 38.48171504 -45.98754883 27.17602539 C-45.5855067 23.01232309 -43.99737562 19.76815251 -41.80395508 16.2746582 C-41.4765332 15.66493164 -41.14911133 15.05520508 -40.81176758 14.42700195 C-36.74321541 7.67082956 -29.58190136 3.38952245 -22.15986633 1.19929504 C-14.87905957 -0.33830542 -7.40469204 -0.01258103 0 0 Z " fill="#939598" transform="translate(449.803955078125,466.725341796875)"/>
<path d="M0 0 C15.20858803 12.06763708 26.91872664 29.78846194 29.38671875 49.38671875 C30.90400039 67.69570212 28.78971011 83.46653136 19.58203125 99.49609375 C18.15348447 102.19479891 18.15348447 102.19479891 18.7890625 104.421875 C21.15903886 107.3365403 23.94361586 109.68795661 26.82421875 112.07421875 C27.45457031 112.6053125 28.08492187 113.13640625 28.734375 113.68359375 C33.28749811 117.50858583 37.89542045 121.26637766 42.5078125 125.01953125 C46.01471365 127.90308905 49.48939412 130.82192911 52.94921875 133.76171875 C53.55765625 134.27412109 54.16609375 134.78652344 54.79296875 135.31445312 C60.92929979 140.55329357 60.92929979 140.55329357 61.86328125 144.296875 C62.23455536 149.68034967 61.02570834 152.42252909 57.63671875 156.63671875 C56.23104307 158.22981786 54.81431694 159.81323462 53.38671875 161.38671875 C52.32130859 162.73056641 52.32130859 162.73056641 51.234375 164.1015625 C48.36671069 167.64825092 46.52574399 168.26016039 42.01171875 168.76171875 C35.37828098 168.07550105 30.68750963 163.07933911 25.82421875 158.82421875 C24.58754433 157.75355416 23.350558 156.68324974 22.11328125 155.61328125 C21.49227539 155.07477539 20.87126953 154.53626953 20.23144531 153.98144531 C11.74000074 146.64077354 3.14605716 139.40588809 -5.61328125 132.38671875 C-6.25136719 131.76796875 -6.88945313 131.14921875 -7.546875 130.51171875 C-9.6465056 129.07061159 -9.6465056 129.07061159 -12.37109375 130.0390625 C-13.44101562 130.48378906 -14.5109375 130.92851562 -15.61328125 131.38671875 C-16.87749353 131.81668435 -18.14601811 132.23412203 -19.41796875 132.640625 C-20.41763672 132.96256836 -20.41763672 132.96256836 -21.4375 133.29101562 C-22.11425781 133.50822266 -22.79101562 133.72542969 -23.48828125 133.94921875 C-24.15730469 134.17029297 -24.82632813 134.39136719 -25.515625 134.61914062 C-43.89708746 140.48066671 -64.41291937 137.66439291 -81.61328125 129.38671875 C-100.97232784 118.32786339 -114.17248908 102.11932057 -120.42578125 80.63671875 C-121.58991669 75.89800274 -122.33853096 71.25729205 -122.61328125 66.38671875 C-122.66613281 65.58105469 -122.71898437 64.77539062 -122.7734375 63.9453125 C-123.45477002 44.06817689 -116.27714955 25.22796969 -103.36328125 10.26171875 C-76.41655913 -18.36350289 -32.10041892 -24.06429977 0 0 Z M-86.61328125 26.0078125 C-96.50098666 37.76877459 -100.84883164 52.15986533 -99.61328125 67.38671875 C-96.87131793 82.47535117 -90.23779702 94.92950135 -77.9765625 104.4296875 C-65.19211857 112.98304585 -51.74125656 116.03915539 -36.48828125 113.9609375 C-21.65627384 110.746021 -10.02604147 102.66291659 -1.47265625 90.36328125 C6.07866526 78.27482118 8.93031772 64.57628686 6.20703125 50.51171875 C2.71307056 37.20139232 -4.2793021 25.42535594 -15.61328125 17.38671875 C-39.96946447 3.37016382 -66.63194984 4.92037167 -86.61328125 26.0078125 Z " fill="#939598" transform="translate(546.61328125,218.61328125)"/>
</svg>
